<svg id="Layer_1" data-name="Layer 1" xmlns="http://www.w3.org/2000/svg" width="583.08465" height="256" viewBox="0 0 583.08465 256">
  <defs>
    <style>
      .cls-1 {
        fill: #ed1c24;
      }

      .cls-2 {
        fill: #fbb03b;
      }

      .cls-3 {
        fill: #e7131a;
      }

      .cls-4 {
        fill: #f2220d;
      }

      .cls-5 {
        fill: #fff;
      }
    </style>
  </defs>
  <title>eshtri.aqar</title>
  <g>
    <g>
      <g>
        <path d="M251.74844,132.7654c-4.31912,14.68549-17.79516,26.95208-38.7,26.95208-23.32373,0-43.88279-16.75861-43.88279-45.438,0-27.125,20.04117-44.74723,41.80968-44.74723,26.26052,0,41.98256,16.7586,41.98256,44.05568,0,3.28256-.34578,6.738-.34578,7.08379H191.79783c.51867,11.23,10.02058,19.34962,21.4235,19.34962,10.71137,0,16.58572-5.35569,19.34962-12.95738Zm-21.4235-27.81574c-.345-8.46536-5.87358-16.7586-19.00384-16.7586-11.92158,0-18.48671,8.984-19.0046,16.7586Z"/>
        <path d="M278.34782,129.13706c.5179,6.738,5.52857,12.95814,15.54916,12.95814,7.60168,0,11.22926-3.97411,11.22926-8.46613,0-3.80046-2.591-6.9109-9.15615-8.29247l-11.23-2.59178c-16.41282-3.62834-23.84239-13.476-23.84239-25.39685,0-15.20338,13.476-27.81574,31.78986-27.81574,24.1874,0,32.307,15.37627,33.34431,24.53318l-19.17749,4.31912c-.69079-5.00991-4.31913-11.40292-13.99393-11.40292-6.04724,0-10.885,3.62834-10.885,8.46613,0,4.14624,3.11045,6.738,7.77458,7.60169l12.0937,2.59178c16.7586,3.45469,25.22473,13.64816,25.22473,26.08763,0,13.82105-10.71213,27.98864-32.9993,27.98864-25.569,0-34.38011-16.58572-35.41744-26.26129Z"/>
        <path d="M363.34336,157.12569h-22.978V32.04168h22.978V79.207c5.52857-6.56513,14.85837-9.329,22.97795-9.329,21.59639,0,31.617,15.0305,31.617,33.68933v53.55836h-22.978V107.54144c0-9.50268-4.6649-16.93149-15.722-16.93149-9.67481,0-15.37627,7.25669-15.89493,16.58572Z"/>
        <path d="M464.40594,72.124h17.10438V92.51018H464.40594V128.1005c0,7.42957,3.45546,9.8477,10.02059,9.8477a33.33631,33.33631,0,0,0,7.08379-.69078V156.262c-2.07312.86367-6.22012,2.07312-12.95737,2.07312-16.58572,0-26.95207-9.84769-26.95207-26.26052V92.51018H426.22461V72.124h4.31912c8.984,0,13.13026-5.87435,13.13026-13.476V46.72716h20.73195Z"/>
        <path d="M546.46469,94.92908a34.63,34.63,0,0,0-6.91091-.69079c-11.74792,0-21.94139,5.70146-21.94139,24.01452v38.87288h-22.978V72.124H516.9216v12.6116c5.1828-11.22926,16.93072-13.30315,24.18741-13.30315a52.28077,52.28077,0,0,1,5.35568.34578Z"/>
        <path d="M568.91783,29.96856a14.16682,14.16682,0,1,1-14.16758,14.33971A14.15863,14.15863,0,0,1,568.91783,29.96856ZM557.51492,157.12569V72.124h22.978v85.00168Z"/>
      </g>
      <g>
        <path class="cls-1" d="M244.33571,210.81827a21.32515,21.32515,0,0,0,5.07863-14.302c0-13.36859-10.04059-21.59946-21.30752-21.59946-11.20835,0-21.24894,8.23087-21.24894,21.59946,0,13.31,10.04059,21.54087,21.24894,21.54087a22.04253,22.04253,0,0,0,10.79973-2.80221l9.73349,10.7765,5.31249-4.55385Zm-16.31893-.48223a13.83529,13.83529,0,1,1,2.35155-27.46747c.10443.01723.20848.03611.3124.05578.06781.01322.13561.02617.203.04037a13.05334,13.05334,0,0,1,3.70367,1.35827,13.83673,13.83673,0,0,1-6.57066,26.013Z"/>
        <path class="cls-1" d="M197.94566,207.72412H181.13289l-3.44418,9.45722h-8.52306l15.87862-41.3887h9.34054l15.76168,41.3887h-8.75666Zm-14.12724-7.35505h11.4417l-5.7206-15.6445Z"/>
        <path class="cls-1" d="M281.71251,207.72412H264.89974l-3.44417,9.45722h-8.52281l15.87836-41.3887h9.34054l15.76169,41.3887h-8.75666Zm-14.12723-7.35505H279.027l-5.72059-15.6445Z"/>
        <path class="cls-1" d="M309.96445,201.24489h-4.20332v15.93645h-8.11419v-41.3887h16.1703c8.05611,0,13.19333,5.54584,13.19333,12.72613a11.74406,11.74406,0,0,1-8.81525,11.73312l8.87333,16.92945h-8.99Zm2.335-6.94694c4.08614,0,6.47973-2.33551,6.47973-5.72059,0-3.50328-2.39359-5.7802-6.47973-5.7802h-6.53833v11.50079Z"/>
      </g>
    </g>
    <path class="cls-2" d="M12.81289,202.45847l86.72247,50.07022a25.62468,25.62468,0,0,0,38.43732-22.1921V130.19733a25.625,25.625,0,0,0-38.43732-22.19209L12.81289,158.07539a25.624,25.624,0,0,0,0,44.38308"/>
    <path class="cls-3" d="M13.34652,97.9727,99.0019,147.42527a25.98022,25.98022,0,0,0,38.97084-22.49934V26.01986A25.98068,25.98068,0,0,0,99.0019,3.51946L13.34652,52.972a25.98184,25.98184,0,0,0,0,45.00073"/>
    <g>
      <path class="cls-4" d="M137.74067,128.38647q0-.81677-.00076-1.63407c0-17.73189-22.13607-28.02261-38.2-18.74815L65.13441,127.86859,99.00634,147.4242C115.3015,156.83353,137.74067,146.39551,137.74067,128.38647Z"/>
      <path class="cls-5" d="M112.387,152.47656a28.22906,28.22906,0,0,1-14.13086-3.7539L65.1346,127.86816l33.65527-21.16308a28.46439,28.46439,0,0,1,28.3833.17578c7.66895,4.42773,12.0669,11.66992,12.0669,19.87109l.00048,1.63477c0,8.32519-4.46,15.6748-12.23583,20.16406A29.25326,29.25326,0,0,1,112.387,152.47656ZM71.1346,127.86816,99.75618,146.125a25.82058,25.82058,0,0,0,25.74854-.17187c6.82275-3.93946,10.73583-10.3418,10.73583-17.56641l-.00048-1.63477c0-7.10058-3.85157-13.3955-10.5669-17.27343a25.46119,25.46119,0,0,0-25.3833-.17579Z"/>
    </g>
    <path class="cls-5" d="M115.10912,120.11662a7.62195,7.62195,0,1,1-7.62191,7.622,7.6213,7.6213,0,0,1,7.62191-7.622"/>
  </g>
</svg>
